<?xml version="1.0" standalone="no"?>
<!DOCTYPE svg PUBLIC "-//W3C//DTD SVG 20010904//EN"
 "http://www.w3.org/TR/2001/REC-SVG-20010904/DTD/svg10.dtd">
<svg version="1.0" xmlns="http://www.w3.org/2000/svg"
 width="1024.000000pt"  height="1024.000000pt" viewBox="0 0 1024.000000 1024.000000"
 preserveAspectRatio="xMidYMid meet">

<g transform="translate(0.000000,1024.000000) scale(0.100000,-0.100000)"
fill="lightblue" stroke="none">
<path d="M0 5120 l0 -5120 5120 0 5120 0 0 5120 0 5120 -5120 0 -5120 0 0
-5120z m5359 3262 c326 -819 518 -1297 601 -1502 40 -96 96 -236 125 -310 29
-74 93 -234 143 -355 115 -281 286 -701 319 -785 15 -36 27 -66 28 -68 1 -1
93 18 203 43 111 25 211 45 222 45 11 0 20 6 20 13 0 6 -52 79 -116 160 -63
82 -114 150 -112 152 2 1 66 -15 143 -36 495 -138 872 -238 977 -259 54 -11
88 -30 54 -30 -9 0 -16 -8 -16 -19 0 -13 -6 -19 -19 -18 -15 1 -17 5 -10 13 7
9 -4 8 -43 -2 -29 -8 -87 -24 -128 -35 -210 -57 -343 -97 -530 -159 -473 -157
-1296 -420 -1460 -465 -47 -13 -121 -35 -165 -49 -44 -15 -129 -40 -190 -57
-60 -17 -209 -59 -330 -94 -389 -113 -446 -127 -507 -129 -9 0 -14 -4 -12 -8
3 -4 -15 -12 -38 -18 -24 -7 -83 -25 -133 -40 -113 -36 -263 -79 -335 -95 -47
-11 -237 -58 -387 -97 -24 -6 -40 -15 -37 -20 3 -5 -5 -6 -19 -3 -14 4 -28 2
-31 -4 -4 -6 -17 -11 -29 -12 -21 0 -21 -1 -2 -8 18 -7 18 -8 -5 -13 -14 -3
-34 -9 -44 -13 -14 -6 -17 -5 -12 3 4 7 1 12 -9 12 -9 0 -14 -4 -10 -9 3 -5
-8 -9 -25 -9 -17 1 -36 -4 -43 -11 -9 -10 -7 -10 13 -3 14 5 34 6 45 1 11 -4
14 -8 7 -8 -23 -2 -82 -46 -77 -58 3 -8 -4 -13 -17 -13 -27 0 -191 22 -197 27
-2 2 44 132 103 290 l108 288 136 62 c1011 457 1197 539 1200 532 2 -3 -24
-80 -58 -169 -33 -89 -60 -165 -60 -169 0 -4 64 10 143 31 142 38 866 225 922
237 16 4 31 14 33 23 2 9 -19 69 -46 134 -27 66 -140 353 -250 639 -248 641
-268 690 -279 689 -9 -2 -47 -95 -183 -454 -51 -135 -120 -315 -154 -400 -59
-148 -63 -155 -101 -175 -22 -11 -40 -26 -40 -33 0 -12 -10 -17 -23 -9 -4 2 0
2 8 0 11 -3 12 -1 4 7 -7 7 -20 7 -43 -1 -45 -16 -25 -34 39 -34 41 0 47 2 37
14 -10 11 -9 13 3 9 18 -6 16 -43 -4 -73 -8 -11 -72 -45 -147 -77 -232 -99
-638 -273 -808 -347 -90 -39 -165 -70 -167 -68 -4 4 183 488 336 872 51 127
116 291 145 365 29 74 132 333 228 575 95 242 224 568 286 725 266 676 576
1450 581 1450 3 0 110 -265 239 -588z m-1414 -276 l110 -44 21 -104 c12 -56
33 -161 48 -233 14 -71 29 -141 32 -155 8 -35 -39 26 -146 190 -47 71 -90 129
-95 129 -6 1 -32 62 -58 137 -25 75 -41 133 -34 130 7 -3 61 -25 122 -50z
m2451 -61 c-20 -59 -36 -113 -36 -120 0 -8 -6 -18 -13 -22 -7 -4 -66 -86 -132
-180 -65 -95 -120 -171 -121 -170 -4 4 93 495 100 506 3 4 33 18 66 30 34 13
85 33 113 46 28 13 53 22 55 20 2 -2 -12 -52 -32 -110z m-3054 -140 c140 -224
219 -357 353 -590 210 -366 256 -455 284 -547 16 -51 38 -120 50 -153 12 -32
21 -61 21 -63 0 -4 -190 166 -395 352 -205 187 -469 446 -454 446 8 0 72 -16
144 -34 71 -19 131 -33 133 -32 1 2 -34 111 -79 242 -44 131 -105 311 -134
399 -29 88 -56 169 -60 180 -16 41 15 -4 137 -200z m3553 -214 c-75 -222 -134
-406 -131 -408 4 -4 164 35 249 61 26 8 47 11 47 7 0 -5 -17 -24 -37 -42 -21
-18 -119 -110 -218 -205 -169 -161 -598 -553 -602 -550 -7 5 94 302 119 351
157 304 697 1222 706 1197 1 -4 -59 -189 -133 -411z m419 -723 c-12 -20 -179
-211 -203 -232 -25 -22 -27 -42 -6 -50 32 -12 11 -38 -87 -106 -56 -38 -103
-68 -105 -66 -2 2 12 37 31 79 19 41 32 78 29 81 -3 3 -27 -6 -54 -20 -27 -13
-72 -33 -101 -44 l-53 -20 42 38 c67 62 260 203 363 266 52 33 104 65 115 72
26 17 38 17 29 2z m-4236 -80 c58 -36 290 -210 377 -284 l30 -25 -60 26 c-110
49 -155 65 -155 56 0 -5 14 -39 30 -76 47 -104 54 -105 -118 24 l-74 55 26 21
26 21 -36 34 c-41 40 -175 194 -187 216 -10 18 41 -6 141 -68z m-372 -388 c49
-17 112 -39 139 -48 47 -15 107 -60 325 -242 30 -25 72 -58 93 -74 21 -15 37
-30 35 -32 -2 -2 -93 28 -201 66 -108 38 -233 77 -277 87 -44 10 -82 23 -84
29 -3 7 -38 59 -79 115 -41 57 -82 116 -92 131 l-17 28 34 -14 c19 -8 74 -29
124 -46z m4970 44 c-3 -9 -47 -73 -96 -144 -81 -115 -94 -129 -126 -135 -46
-8 -388 -121 -519 -171 -11 -4 18 23 65 61 82 66 194 161 290 243 35 30 73 48
175 82 72 24 148 51 170 61 50 22 48 22 41 3z m-4768 -1066 c-23 -16 -54 -34
-68 -40 -23 -10 -23 -11 -5 -15 36 -8 410 -133 424 -142 11 -7 10 -10 -5 -14
-11 -3 -57 -17 -104 -31 -47 -14 -215 -64 -373 -111 -159 -46 -293 -87 -298
-91 -16 -10 -10 5 46 110 l56 104 -28 6 c-16 4 -120 41 -231 82 -112 41 -217
78 -233 81 -32 6 -50 23 -24 23 9 0 188 16 398 35 431 39 469 42 480 36 5 -2
-11 -17 -35 -33z m5234 -50 c37 -7 68 -16 68 -19 0 -9 -59 -31 -270 -101 -287
-96 -331 -109 -341 -103 -5 4 -9 2 -9 -4 0 -15 -210 -80 -232 -72 -30 11 -2
29 52 33 41 3 43 4 27 20 -16 16 -15 17 28 14 25 -1 45 1 45 4 0 4 14 6 30 4
21 -3 30 1 30 10 0 8 15 18 33 21 17 4 35 12 38 17 4 6 15 6 29 -2 12 -6 24
-9 28 -6 3 3 0 6 -6 6 -7 0 -12 5 -12 10 0 7 6 7 20 0 16 -9 18 -8 14 5 -5 11
1 15 20 15 19 0 27 6 32 25 3 14 11 25 16 25 6 0 7 -11 4 -26 -6 -23 -5 -24
14 -14 11 6 20 16 21 23 0 9 2 9 6 0 2 -7 17 -13 31 -12 l27 1 -25 8 c-23 7
-23 8 10 10 25 2 29 4 12 7 -12 2 -20 8 -17 13 3 5 19 7 34 4 22 -5 32 -1 45
18 13 18 18 20 25 9 5 -7 14 -10 21 -6 8 5 9 10 1 18 -6 6 -11 17 -11 25 0 12
2 12 17 1 15 -13 16 -12 11 9 -5 19 -3 22 14 16 15 -4 18 -3 13 7 -6 9 -2 11
16 6 13 -3 54 -12 91 -19z m-719 -255 c-7 -2 -19 -2 -25 0 -7 3 -2 5 12 5 14
0 19 -2 13 -5z m-98 -68 c-16 -7 -46 -15 -65 -18 -34 -6 -34 -6 5 7 25 8 34
15 25 18 -8 3 3 5 25 5 l40 0 -30 -12z m755 -372 c-18 -32 -36 -61 -39 -66 -7
-7 -237 26 -247 36 -3 2 25 13 61 22 39 11 65 23 65 31 0 8 -4 14 -10 14 -5 0
-10 4 -10 10 0 7 195 20 208 13 2 -1 -11 -28 -28 -60z m-5743 39 c-10 -10 -17
-21 -17 -24 0 -3 30 -13 66 -23 42 -11 61 -21 53 -25 -16 -9 -229 -43 -234
-38 -8 9 -65 116 -65 121 0 4 48 7 107 7 102 0 105 -1 90 -18z m353 -228 c-58
-52 -113 -93 -126 -94 -6 0 -43 -29 -82 -65 -40 -36 -77 -65 -83 -65 -6 0 -20
5 -32 11 -16 9 -46 8 -133 -6 -78 -13 -119 -16 -134 -9 -19 8 -6 16 92 53 62
24 158 63 213 87 179 77 318 132 323 128 2 -1 -15 -19 -38 -40z m5185 -92
c165 -66 307 -122 315 -125 25 -9 -73 -8 -105 1 -17 5 -64 5 -108 -1 l-77 -9
-43 39 c-53 49 -131 103 -149 103 -15 0 -70 38 -153 105 l-20 16 20 -4 c11 -2
155 -58 320 -125z m-1025 18 c-8 -5 -22 -9 -30 -9 -10 0 -8 3 5 9 27 12 43 12
25 0z m-103 -45 c0 -8 -4 -15 -8 -15 -5 0 -6 -7 -2 -16 4 -12 8 -13 14 -3 11
18 50 19 56 1 5 -12 8 -11 16 3 7 12 5 20 -4 26 -10 6 -8 9 8 9 12 0 24 6 27
13 4 6 4 -6 2 -28 -2 -22 -2 -34 1 -27 2 6 14 12 26 12 17 0 19 2 8 9 -8 5
-16 17 -17 26 -2 16 -1 16 16 0 14 -13 19 -13 23 -3 4 9 6 8 6 -3 1 -8 14 -43
31 -77 35 -72 393 -969 545 -1367 30 -77 84 -216 120 -310 176 -448 279 -734
270 -744 -4 -3 -24 14 -45 39 -22 25 -44 44 -51 42 -6 -1 -13 7 -16 18 -4 15
-11 19 -24 15 -13 -4 -19 -1 -19 8 0 8 10 17 22 20 21 6 21 7 5 25 -9 10 -17
26 -17 35 0 22 -46 107 -54 100 -3 -4 -6 3 -6 15 0 12 -4 22 -10 22 -5 0 -10
6 -10 13 0 7 -7 22 -15 33 -13 18 -14 18 -9 -6 5 -24 5 -24 -11 3 -10 18 -14
40 -11 60 5 25 4 27 -3 12 -5 -11 -7 -42 -4 -70 6 -50 26 -77 50 -68 9 3 11 0
7 -10 -3 -8 -1 -18 5 -22 6 -3 11 -11 11 -17 0 -7 -6 -6 -15 2 -18 15 -20 7
-2 -12 28 -31 34 -52 23 -80 -18 -49 -31 -48 -173 18 -28 13 -55 24 -60 24 -4
0 -19 6 -33 13 -68 36 -220 72 -220 53 0 -6 -9 -17 -20 -24 -16 -10 -20 -23
-20 -63 0 -40 3 -50 14 -46 8 3 20 0 26 -8 9 -11 5 -12 -23 -5 -19 4 -40 10
-46 14 -6 4 -11 3 -11 -2 0 -12 79 -36 110 -33 22 1 23 0 7 -9 -17 -11 -77 4
-129 31 -10 5 -26 9 -36 9 -10 0 -36 8 -58 18 -21 11 -74 30 -116 43 -52 16
-80 31 -87 44 -11 24 -56 143 -118 310 -50 136 -154 415 -254 680 l-68 180
-1241 0 -1242 0 -24 -60 c-12 -33 -80 -211 -149 -395 -199 -526 -276 -724
-283 -732 -4 -4 -53 -24 -107 -44 -297 -107 -335 -118 -335 -103 0 5 12 9 26
9 15 0 23 4 19 11 -4 6 2 13 14 16 30 8 26 20 -6 18 -16 -1 -20 0 -10 2 16 4
15 6 -5 23 -15 13 -18 19 -9 20 11 0 11 4 -2 18 -10 10 -14 22 -10 25 7 7 -10
11 -40 7 -16 -1 -17 2 -8 19 11 20 10 20 -26 5 -21 -8 -56 -23 -78 -34 -22
-10 -76 -34 -120 -53 -185 -80 -213 -93 -283 -128 -41 -21 -71 -32 -69 -26
212 534 300 758 362 922 185 489 212 552 238 558 32 7 465 158 587 205 58 22
107 39 109 37 3 -3 -27 -39 -172 -212 -16 -18 -26 -33 -24 -33 3 0 56 17 118
39 63 21 175 57 249 80 74 23 141 44 148 47 7 2 10 8 7 14 -3 6 1 7 10 4 17
-7 99 42 91 54 -2 4 6 8 17 8 12 1 45 17 74 35 128 83 169 108 187 115 10 4
66 36 125 72 58 35 122 72 141 82 33 17 84 18 707 22 369 1 674 5 677 9 7 6
-22 98 -63 204 -29 74 -30 81 -14 92 9 7 19 10 22 7 3 -3 -2 -11 -12 -19 -16
-12 -16 -14 3 -36 21 -23 21 -23 10 -1 -6 13 -7 22 -1 22 5 0 11 -6 14 -12 2
-7 8 -10 12 -6 4 4 2 14 -4 22 -11 13 -9 13 13 3 14 -7 26 -16 26 -20 0 -5 -4
-5 -10 -2 -6 3 -7 -1 -4 -10 5 -11 2 -14 -12 -8 -12 4 -15 3 -10 -5 4 -7 19
-12 34 -12 22 0 24 2 12 11 -12 8 -9 9 13 5 15 -4 27 -2 27 4 0 5 -9 10 -20
10 -29 0 -25 15 5 16 15 1 25 -3 25 -12 0 -8 10 -14 23 -14 20 1 20 2 5 11
-10 5 -18 17 -18 25 0 14 2 14 15 0 16 -16 68 -13 92 6 7 5 17 7 23 3 7 -5 5
-12 -7 -21 -16 -12 -14 -12 15 -3 17 6 32 13 32 15 0 2 -12 10 -27 18 -26 14
-26 15 -6 16 12 0 25 -4 28 -10 3 -5 11 -10 17 -10 7 0 6 6 -2 15 -7 8 -11 15
-9 16 44 8 69 7 69 -2 0 -6 -7 -9 -15 -5 -8 3 -15 1 -15 -4 0 -12 6 -12 53 1
43 12 52 35 10 25 -21 -5 -24 -4 -13 4 19 13 77 13 85 0 3 -6 -4 -10 -16 -10
-17 0 -20 -3 -12 -11 16 -16 54 11 47 33 -3 10 -1 18 4 18 5 0 12 -9 15 -20 5
-20 47 -29 47 -10 0 6 -7 10 -17 10 -9 0 -14 3 -10 6 11 11 44 -6 54 -28 6
-15 12 -18 17 -10 4 7 2 12 -3 12 -6 0 -11 5 -11 10 0 6 10 10 21 10 16 0 19
3 12 13 -13 15 -13 47 -1 47 5 0 8 -7 6 -16 -2 -10 3 -19 10 -21 6 -3 12 2 12
11 0 9 4 16 10 16 5 0 7 -7 4 -15 -4 -8 -1 -15 4 -15 6 0 12 -6 15 -12 2 -7 2
-3 1 9 -3 17 3 24 30 33 24 8 33 16 29 26 -3 9 0 12 9 9 8 -3 15 -12 15 -20z
m-83 6 c3 -4 -4 -7 -14 -6 -27 2 -33 10 -10 12 11 1 22 -2 24 -6z m-98 -43
c-9 -12 -16 -20 -17 -18 0 3 -2 13 -4 22 -2 11 2 15 11 11 8 -3 14 1 14 8 0 7
3 10 6 6 3 -3 -1 -16 -10 -29z m-39 6 c-3 -3 -12 -4 -19 -1 -8 3 -5 6 6 6 11
1 17 -2 13 -5z m-366 -89 c5 4 6 -1 3 -9 -8 -20 -24 -11 -23 12 0 11 2 12 6 4
2 -6 9 -10 14 -7z m-116 -5 c3 -6 -1 -7 -9 -4 -18 7 -21 14 -7 14 6 0 13 -4
16 -10z m39 -5 c-7 -16 -24 -21 -24 -6 0 8 7 13 27 20 1 1 0 -6 -3 -14z m126
5 c0 -5 -2 -10 -4 -10 -3 0 -8 5 -11 10 -3 6 -1 10 4 10 6 0 11 -4 11 -10z
m-3803 -548 l-125 -191 37 -14 c21 -9 54 -19 74 -22 20 -4 37 -10 37 -14 0 -6
-46 -52 -176 -174 l-51 -48 5 100 c4 82 2 101 -9 101 -8 0 -97 -41 -199 -90
-184 -89 -185 -90 -138 -47 26 23 122 112 215 198 178 165 446 399 451 394 2
-2 -52 -89 -121 -193z m5329 177 c10 -12 87 -79 169 -149 138 -116 282 -246
454 -408 l66 -62 -183 90 c-101 49 -189 90 -195 90 -9 0 -11 -29 -9 -101 l3
-102 -110 103 c-61 57 -112 109 -115 115 -2 7 24 18 70 30 41 10 74 20 74 23
0 2 -59 91 -130 198 -72 107 -127 194 -122 194 5 0 17 -10 28 -21z m-3471
-167 c-3 -3 -11 0 -18 7 -9 10 -8 11 6 5 10 -3 15 -9 12 -12z m430 -1214 c-2
-7 -20 -65 -39 -128 -42 -141 -54 -173 -64 -168 -32 14 -112 64 -112 71 0 4
37 48 83 98 45 50 91 101 102 114 22 26 37 32 30 13z m968 -105 c53 -57 97
-110 97 -118 0 -8 -26 -28 -58 -44 l-59 -30 -46 147 c-48 150 -54 174 -39 157
5 -6 52 -56 105 -112z m2054 -312 c-3 -10 -5 -8 -6 6 0 12 -5 25 -11 28 -5 3
-10 16 -10 28 1 17 4 15 16 -12 8 -19 13 -42 11 -50z m3 -57 c0 -2 -7 -4 -15
-4 -8 0 -15 4 -15 10 0 5 7 7 15 4 8 -4 15 -8 15 -10z"/>
<path d="M4528 5523 c7 -3 16 -2 19 1 4 3 -2 6 -13 5 -11 0 -14 -3 -6 -6z"/>
<path d="M8020 5390 c0 -5 5 -10 10 -10 6 0 10 5 10 10 0 6 -4 10 -10 10 -5 0
-10 -4 -10 -10z"/>
<path d="M6706 4384 c-4 -9 -4 -19 -1 -22 2 -3 7 3 11 12 4 9 4 19 1 22 -2 3
-7 -3 -11 -12z"/>
<path d="M6761 4384 c0 -11 3 -14 6 -6 3 7 2 16 -1 19 -3 4 -6 -2 -5 -13z"/>
<path d="M6780 4330 c0 -6 7 -10 15 -10 8 0 15 2 15 4 0 2 -7 6 -15 10 -8 3
-15 1 -15 -4z"/>
<path d="M6500 4321 c0 -5 7 -12 16 -15 14 -5 15 -4 4 9 -14 17 -20 19 -20 6z"/>
<path d="M6728 4313 c7 -3 16 -2 19 1 4 3 -2 6 -13 5 -11 0 -14 -3 -6 -6z"/>
<path d="M6458 4293 c7 -3 16 -2 19 1 4 3 -2 6 -13 5 -11 0 -14 -3 -6 -6z"/>
<path d="M6190 4260 c0 -5 5 -10 11 -10 5 0 7 5 4 10 -3 6 -8 10 -11 10 -2 0
-4 -4 -4 -10z"/>
<path d="M5981 4214 c0 -11 3 -14 6 -6 3 7 2 16 -1 19 -3 4 -6 -2 -5 -13z"/>
<path d="M7627 2363 c-4 -3 -7 -11 -7 -17 0 -6 5 -5 12 2 6 6 9 14 7 17 -3 3
-9 2 -12 -2z"/>
</g>
</svg>
